<?xml version="1.0" encoding="iso-8859-1"?>
<!-- Generator: Adobe Illustrator 19.0.0, SVG Export Plug-In . SVG Version: 6.00 Build 0)  -->
<svg version="1.1" id="Capa_1" xmlns="http://www.w3.org/2000/svg" xmlns:xlink="http://www.w3.org/1999/xlink" x="0px" y="0px"
	 viewBox="0 0 512 512" style="enable-background:new 0 0 512 512;" xml:space="preserve">
<linearGradient id="SVGID_1_" gradientUnits="userSpaceOnUse" x1="32.0001" y1="258.0004" x2="480.0002" y2="258.0004" gradientTransform="matrix(1 0 0 -1 0 514.0005)">
	<stop  offset="0" style="stop-color:#00F2FE"/>
	<stop  offset="0.021" style="stop-color:#03EFFE"/>
	<stop  offset="0.293" style="stop-color:#24D2FE"/>
	<stop  offset="0.554" style="stop-color:#3CBDFE"/>
	<stop  offset="0.796" style="stop-color:#4AB0FE"/>
	<stop  offset="1" style="stop-color:#4FACFE"/>
</linearGradient>
<path style="fill:url(#SVGID_1_);" d="M256,512c-30.389,0-60.113-7.155-88.347-21.266c-26.359-13.174-50.217-31.768-70.912-55.266
	C55.597,388.752,32,327.712,32,268V110c0-7.911,4.663-15.078,11.894-18.284l203-90c5.139-2.278,10.999-2.289,16.146-0.029l205,90
	C475.307,94.878,480,102.064,480,110v158c0,44.018-12.521,88.354-36.21,128.217c-5.643,9.496-17.914,12.619-27.411,6.976
	c-9.496-5.643-12.619-17.915-6.976-27.411C429.42,342.1,440,304.829,440,268V123.062L255.04,41.86L72,123.01V268
	c0,106.766,87.701,204,184,204c34.037,0,67.313-11.125,96.231-32.171c8.931-6.499,21.44-4.529,27.94,4.402s4.529,21.44-4.402,27.94
	C339.967,498.227,298.552,512,256,512z M229.07,352.968c10.601-0.426,20.337-5.015,27.415-12.919
	c0.246-0.275,0.484-0.557,0.715-0.845l125.415-156.708c6.902-8.624,5.505-21.21-3.118-28.112c-8.625-6.902-21.21-5.506-28.112,3.119
	L227.379,312.451l-69.515-66.865c-7.961-7.657-20.622-7.412-28.279,0.549s-7.412,20.622,0.549,28.279l70.485,67.798
	c0.028,0.027,0.057,0.054,0.085,0.082c7.299,6.939,16.746,10.707,26.754,10.707C227.995,353.001,228.532,352.99,229.07,352.968z"/>
<g>
</g>
<g>
</g>
<g>
</g>
<g>
</g>
<g>
</g>
<g>
</g>
<g>
</g>
<g>
</g>
<g>
</g>
<g>
</g>
<g>
</g>
<g>
</g>
<g>
</g>
<g>
</g>
<g>
</g>
</svg>
