<?xml version="1.0" encoding="iso-8859-1"?>
<!-- Generator: Adobe Illustrator 19.0.0, SVG Export Plug-In . SVG Version: 6.00 Build 0)  -->
<svg version="1.1" id="Capa_1" xmlns="http://www.w3.org/2000/svg" xmlns:xlink="http://www.w3.org/1999/xlink" x="0px" y="0px"
	 viewBox="0 0 512 512" style="enable-background:new 0 0 512 512;" xml:space="preserve">
<linearGradient id="SVGID_1_" gradientUnits="userSpaceOnUse" x1="32.0001" y1="258.0004" x2="480.0002" y2="258.0004" gradientTransform="matrix(1 0 0 -1 0 514.0005)">
	<stop  offset="0" style="stop-color:#00F2FE"/>
	<stop  offset="0.021" style="stop-color:#03EFFE"/>
	<stop  offset="0.293" style="stop-color:#24D2FE"/>
	<stop  offset="0.554" style="stop-color:#3CBDFE"/>
	<stop  offset="0.796" style="stop-color:#4AB0FE"/>
	<stop  offset="1" style="stop-color:#4FACFE"/>
</linearGradient>
<path style="fill:url(#SVGID_1_);" d="M340.143,207.142L284.285,263l55.858,55.858c7.81,7.811,7.81,20.474,0,28.284
	C336.237,351.048,331.118,353,326,353s-10.237-1.953-14.143-5.858L256,291.285l-55.857,55.857C196.237,351.048,191.118,353,186,353
	s-10.237-1.953-14.143-5.858c-7.81-7.811-7.81-20.474,0-28.284L227.715,263l-55.858-55.858c-7.81-7.811-7.81-20.474,0-28.284
	c7.811-7.811,20.475-7.811,28.285,0L256,234.715l55.857-55.857c7.811-7.811,20.475-7.811,28.285,0S347.952,199.332,340.143,207.142z
	 M468.04,91.687l-205-90c-5.147-2.26-11.007-2.249-16.146,0.029l-203,90C36.662,94.923,32,102.09,32,110v158
	c0,59.712,23.598,120.752,64.741,167.468c20.694,23.498,44.553,42.092,70.911,55.266C195.888,504.845,225.611,512,256,512
	c42.552,0,83.967-13.773,119.769-39.829c8.932-6.5,10.902-19.009,4.402-27.94c-6.501-8.93-19.01-10.901-27.939-4.402
	C323.314,460.876,290.037,472,256,472c-96.299,0-184-97.234-184-204V123.01l183.04-81.15L440,123.062V268
	c0,36.828-10.58,74.099-30.597,107.783c-5.643,9.496-2.52,21.768,6.977,27.411c9.493,5.642,21.768,2.519,27.41-6.976
	C467.479,356.354,480,312.017,480,268V110C480,102.064,475.307,94.878,468.04,91.687z"/>
<g>
</g>
<g>
</g>
<g>
</g>
<g>
</g>
<g>
</g>
<g>
</g>
<g>
</g>
<g>
</g>
<g>
</g>
<g>
</g>
<g>
</g>
<g>
</g>
<g>
</g>
<g>
</g>
<g>
</g>
</svg>
